<svg width="720" height="180" viewBox="0 0 720 180" fill="none" xmlns="http://www.w3.org/2000/svg">
  <rect x="18" y="18" width="144" height="144" rx="34" fill="url(#bg)"/>
  <path d="M113 47C99.2 50.5 89 63 89 77.9C89 95.7 103.4 110.1 121.2 110.1C125.5 110.1 129.6 109.3 133.4 107.7C127.7 121.9 113.8 131.9 97.5 131.9C76.2 131.9 58.9 114.6 58.9 93.3C58.9 70.9 77.8 53.2 100.2 54.9C104.8 55.2 109.1 56.4 113 47Z" fill="#F8FAFC"/>
  <path d="M66 74L48 90L66 106" stroke="#6EE7B7" stroke-width="9" stroke-linecap="round" stroke-linejoin="round"/>
  <path d="M114 74L132 90L114 106" stroke="#6EE7B7" stroke-width="9" stroke-linecap="round" stroke-linejoin="round"/>
  <path d="M84 114L97 66" stroke="#93C5FD" stroke-width="8" stroke-linecap="round"/>
  <circle cx="126" cy="54" r="8" fill="#6EE7B7"/>
  <text x="194" y="91" fill="#172033" font-family="Aptos, Segoe UI, Arial, sans-serif" font-size="52" font-weight="800" letter-spacing="0">Night24</text>
  <text x="198" y="124" fill="#657083" font-family="Aptos, Segoe UI, Arial, sans-serif" font-size="20" font-weight="500" letter-spacing="0">Local AI coding agent</text>
  <defs>
    <linearGradient id="bg" x1="35" y1="31" x2="147" y2="153" gradientUnits="userSpaceOnUse">
      <stop stop-color="#1E40AF"/>
      <stop offset="0.48" stop-color="#2563EB"/>
      <stop offset="1" stop-color="#0F766E"/>
    </linearGradient>
  </defs>
</svg>
